<?xml version="1.0" encoding="UTF-8" standalone="no" ?>
<!DOCTYPE svg PUBLIC "-//W3C//DTD SVG 1.1//EN" "http://www.w3.org/Graphics/SVG/1.1/DTD/svg11.dtd">
<svg xmlns="http://www.w3.org/2000/svg" xmlns:xlink="http://www.w3.org/1999/xlink" version="1.1" width="1200" height="628" viewBox="0 0 1200 628" xml:space="preserve">
<desc>Created with Fabric.js 5.2.4</desc>
<defs>
</defs>
<g transform="matrix(1 0 0 1 600 314)" id="dd8a82f5-47ea-4ecf-a8bf-b84a2d3e234d"  >
<rect style="stroke: none; stroke-width: 1; stroke-dasharray: none; stroke-linecap: butt; stroke-dashoffset: 0; stroke-linejoin: miter; stroke-miterlimit: 4; fill: rgb(255,255,255); fill-rule: nonzero; opacity: 1; visibility: hidden;" vector-effect="non-scaling-stroke"  x="-600" y="-314" rx="0" ry="0" width="1200" height="628" />
</g>
<g transform="matrix(Infinity NaN NaN Infinity 0 0)" id="ad523a37-53ff-4001-8b3e-8f2c737e7a3b"  >
</g>
<g transform="matrix(1 0 0 1 616.09 314)"  >
<g style="" vector-effect="non-scaling-stroke"   >
		<g transform="matrix(1 0 0 1 0 0)"  >
<rect style="stroke: none; stroke-width: 1; stroke-dasharray: none; stroke-linecap: butt; stroke-dashoffset: 0; stroke-linejoin: miter; stroke-miterlimit: 4; fill: rgb(255,255,255); fill-rule: nonzero; opacity: 1; visibility: hidden;" vector-effect="non-scaling-stroke"  x="-540" y="-540" rx="0" ry="0" width="1080" height="1080" />
</g>
		<g transform="matrix(1 0 0 1 -287.06 55.26)"  >
<path style="stroke: none; stroke-width: 1; stroke-dasharray: none; stroke-linecap: butt; stroke-dashoffset: 0; stroke-linejoin: miter; stroke-miterlimit: 4; fill: rgb(242,242,242); fill-rule: nonzero; opacity: 1;" vector-effect="non-scaling-stroke"  transform=" translate(-312.94, -505.26)" d="M 432.12988 567.97449 C 429.27979 590.30449 418.7998 610.7344899999999 407.61963000000003 630.4144899999999 C 407.25000000000006 631.0844899999998 406.86963000000003 631.7444899999999 406.47998 632.4144899999999 L 290.27979 632.4144899999999 C 287.92969 631.8044899999999 285.60985999999997 631.1344899999999 283.29979 630.4144899999999 C 270.1753311794467 626.41860533909 257.7848616084424 620.322984148196 246.60985 612.3644899999999 C 203.85984999999997 581.56449 187.40965999999997 523.3644899999999 194.83984999999996 471.21448999999996 C 199.45996999999994 438.81449 213.67969999999997 405.73448999999994 241.36963999999995 388.28448999999995 C 255.98975999999993 379.05448999999993 274.76953999999995 376.05448999999993 291.59963999999997 379.48448999999994 C 292.04006999999996 379.5644899999999 292.48001 379.66448999999994 292.92972 379.7544899999999 C 307.40972 383.0144899999999 320.3096 391.11448999999993 327.64993 404.16448999999994 C 340.84963999999997 427.61448999999993 332.98978 456.66448999999994 326.50003 482.7644899999999 C 320.02982 508.86448999999993 316.51955999999996 540.1044899999999 335.29983 559.3544899999999 C 329.09963999999997 541.1044899999999 335.21976 519.33449 350.02983 506.9944899999999 C 361.21977 497.6844899999999 376.79983 494.1944899999999 391.00983 497.0844899999999 C 392.36969000000005 497.3744899999999 393.71002000000004 497.7044899999999 395.02983 498.1044899999999 C 398.2200267098499 499.03874624551867 401.2957708205538 500.32674629187704 404.19975 501.94448999999986 C 426.34961 514.31452 435.31982 542.80451 432.12988 567.97449 Z" stroke-linecap="round" />
</g>
		<g transform="matrix(1 0 0 1 -284.64 55.93)"  >
<path style="stroke: none; stroke-width: 1; stroke-dasharray: none; stroke-linecap: butt; stroke-dashoffset: 0; stroke-linejoin: miter; stroke-miterlimit: 4; fill: rgb(255,255,255); fill-rule: nonzero; opacity: 1;" vector-effect="non-scaling-stroke"  transform=" translate(-315.36, -505.93)" d="M 363.23 630.4145 C 366.44973000000005 631.1645 369.67971 631.8245 372.92971 632.4145 L 355.35986 632.4145 C 353.05957 631.7945 350.76953000000003 631.1345 348.5 630.4145 Q 341.01466 628.0745 333.75977 625.0445 C 314.35986 616.9045 296.48977 604.6845 282.96977 588.4245 C 276.3576040067676 580.5467023605204 270.9581333892325 571.72621883612 266.94977 562.2545 C 262.6032623758905 551.5490581445366 259.8409679951384 540.2670446573048 258.75006 528.7645 C 256.29986 505.1645 258.79986 480.9145 263.46979000000005 457.7345 C 268.28911198936277 433.70966094400853 276.06849856542925 410.37501132216505 286.62994 388.2645000000001 Q 288.53494 384.28956 290.56988 380.3645 C 290.7589789287205 379.92798951181624 291.13901551041164 379.6032318506541 291.59967 379.4845 C 292.06129026390107 379.39502112742326 292.53955802682066 379.492107239528 292.92975 379.7545 C 293.90232053120894 380.3124850016083 294.26723455099994 381.53460934506796 293.75983 382.5345 C 282.87043169214405 403.7703307926977 274.61593691454937 426.2568715325055 269.17975 449.4944999999999 C 263.85992 472.1645 260.8399 495.88449999999995 261.86969 519.1945 C 262.84969 540.9744999999999 268.5401 562.3945 281.44977 580.20444 C 293.23977 596.46444 309.51959 609.28444 327.52985 618.0144399999999 C 338.92928132597206 623.4685229242965 350.9040696963828 627.6278358201918 363.2300000000001 630.4145 Z" stroke-linecap="round" />
</g>
		<g transform="matrix(1 0 0 1 -214.15 114.75)"  >
<path style="stroke: none; stroke-width: 1; stroke-dasharray: none; stroke-linecap: butt; stroke-dashoffset: 0; stroke-linejoin: miter; stroke-miterlimit: 4; fill: rgb(255,255,255); fill-rule: nonzero; opacity: 1;" vector-effect="non-scaling-stroke"  transform=" translate(-385.85, -564.75)" d="M 401.79 632.4145 L 396.60982 632.4145 C 396.02975000000004 631.7545 395.46969 631.0844999999999 394.91988000000003 630.4145 C 383.12087928809785 616.0785485639742 375.12768430335785 598.9985944093816 371.67965000000004 580.7545 C 367.49218378768694 557.9868655341248 370.7497006463183 534.4759392293638 380.96965000000006 513.7045 C 383.8209609328995 507.87997873819285 387.18065623465077 502.3184114159711 391.0096500000001 497.08450000000005 C 392.3695100000001 497.37450000000007 393.7098400000001 497.70450000000005 395.02965000000006 498.10450000000003 C 384.95820018948046 511.4483797375599 378.18398008690497 526.9841986273309 375.2596500000001 543.4445000000002 C 369.976374073801 574.6816474315098 379.06623128649534 606.6353134785959 400 630.4145 C 400.57959 631.08448 401.17969 631.75452 401.79 632.4145 Z" stroke-linecap="round" />
</g>
		<g transform="matrix(1 0 0 1 299.89 148.85)"  >
<path style="stroke: none; stroke-width: 1; stroke-dasharray: none; stroke-linecap: butt; stroke-dashoffset: 0; stroke-linejoin: miter; stroke-miterlimit: 4; fill: rgb(242,242,242); fill-rule: nonzero; opacity: 1;" vector-effect="non-scaling-stroke"  transform=" translate(-899.89, -598.85)" d="M 868.42938 615.40764 C 869.1815700000001 621.30094 871.94743 626.6927900000001 874.89808 631.8867 C 874.99563 632.06352 875.0960200000001 632.2377 875.1988600000001 632.41453 L 905.8662100000001 632.41453 C 906.4864500000001 632.2535300000001 907.0986900000001 632.07671 907.7083600000001 631.8867 C 911.1721457340307 630.8321102608171 914.4422183501396 629.2233627950094 917.39151 627.12297 C 928.6740100000001 618.99429 933.0155100000001 603.6342500000001 931.05451 589.8709 C 929.83518 581.31996 926.0823300000001 572.58953 918.77445 567.98416 C 914.806090588051 565.5672368765252 910.0714948244236 564.7377635821377 905.51784 565.6616799999999 C 905.4016 565.6827999999999 905.28549 565.70918 905.16684 565.73294 C 901.3329263099131 566.4740817422028 897.9984964582214 568.8183460757684 896.0035399999999 572.17518 C 892.5198899999999 578.36407 894.5942499999999 586.03089 896.30702 592.91918 C 898.01463 599.80746 898.94102 608.0522599999999 893.9845899999999 613.13269 C 895.4636673948156 608.8066306432307 894.4921556156057 604.019078432668 891.4437840469416 600.6117495261042 C 888.3954124782775 597.2044206195403 883.7450777362621 595.7081325145241 879.2817099999999 596.69849 C 878.9228199999999 596.77504 878.5690799999999 596.86212 878.2207099999998 596.9677 C 877.3787593706527 597.2142710927781 876.5670143903176 597.5541990094102 875.8005999999998 597.9811500000001 C 869.9549 601.24579 867.58749 608.76482 868.42938 615.40764 Z" stroke-linecap="round" />
</g>
		<g transform="matrix(1 0 0 1 299.23 149.03)"  >
<path style="stroke: none; stroke-width: 1; stroke-dasharray: none; stroke-linecap: butt; stroke-dashoffset: 0; stroke-linejoin: miter; stroke-miterlimit: 4; fill: rgb(255,255,255); fill-rule: nonzero; opacity: 1;" vector-effect="non-scaling-stroke"  transform=" translate(-899.23, -599.03)" d="M 886.61332 631.8867 C 885.76358 632.08464 884.9111300000001 632.25881 884.05339 632.41453 L 888.69039 632.41453 C 889.29748 632.25091 889.9018599999999 632.07671 890.50083 631.8867 Q 892.47636 631.26912 894.39105 630.46946 C 899.5684667044311 628.3674412195995 904.1654660005389 625.0529693418832 907.7954699999999 620.8047700000001 C 909.5405497348396 618.7256761455602 910.9655784315778 616.3977899816742 912.0234699999999 613.8980300000001 C 913.1705754858726 611.0726598869344 913.8995774754964 608.0951246995184 914.1874699999998 605.05939 C 914.7137093704297 598.7835734326197 914.2938137054495 592.4643058186712 912.9418499999998 586.31329 C 911.6699453952828 579.9726892354461 909.6168219307706 573.8142425541607 906.8294599999998 567.9788699999999 Q 906.3266899999998 566.92981 905.7896399999998 565.8939300000001 C 905.7397352801266 565.7787252381172 905.639436180543 565.6930144945809 905.5178599999998 565.66168 C 905.3960400988548 565.6380731919345 905.2698294316928 565.6636964743902 905.1668599999998 565.7329400000001 C 904.9101822388365 565.8802018550839 904.8138724867214 566.2027392935967 904.9477799999999 566.4666300000001 C 907.8216976903301 572.0711631055891 910.0002124139833 578.0057833228801 911.4349199999998 584.1386300000001 C 912.912538266524 590.1538942898604 913.5616239368624 596.3427969288493 913.3641799999998 602.5337400000002 C 913.2586264175446 608.2916887148237 911.4615055135916 613.8913624154991 908.1966299999998 618.6353800000002 C 905.0215962993425 622.9077475806197 900.8453632967867 626.3344655469551 896.0352599999998 628.6141300000002 C 893.0267351657639 630.0535535282153 889.8663634704718 631.1512613886837 886.61332 631.8867 Z" stroke-linecap="round" />
</g>
		<g transform="matrix(1 0 0 1 280.64 164.56)"  >
<path style="stroke: none; stroke-width: 1; stroke-dasharray: none; stroke-linecap: butt; stroke-dashoffset: 0; stroke-linejoin: miter; stroke-miterlimit: 4; fill: rgb(255,255,255); fill-rule: nonzero; opacity: 1;" vector-effect="non-scaling-stroke"  transform=" translate(-880.64, -614.56)" d="M 876.43662 632.41453 L 877.8037599999999 632.41453 C 877.9568499999999 632.24035 878.1046599999999 632.06353 878.2497599999999 631.8867 C 881.3637282861259 628.1031788949178 883.4732776516508 623.5954681996799 884.3832799999999 618.78052 C 885.4884259983655 612.7717210380353 884.6287045729187 606.5667548212721 881.9314699999999 601.08479 C 881.1789518822045 599.5475903163868 880.2922634670415 598.0797884497648 879.2817199999998 596.69846 C 878.9228299999999 596.77501 878.5690899999998 596.86209 878.2207199999998 596.96767 C 880.8787681244655 600.4893614498294 882.6666112325571 604.5895513625701 883.4383899999998 608.93373 C 884.8327526396777 617.1777879743361 882.4337849204319 625.6109527459611 876.9089899999998 631.88673 C 876.75608 632.06352 876.5977 632.24035 876.43662 632.41453 Z" stroke-linecap="round" />
</g>
		<g transform="matrix(1 0 0 1 -56.49 10.76)"  >
<path style="stroke: none; stroke-width: 1; stroke-dasharray: none; stroke-linecap: butt; stroke-dashoffset: 0; stroke-linejoin: miter; stroke-miterlimit: 4; fill: rgb(64,158,255); fill-rule: nonzero; opacity: 1;" vector-effect="non-scaling-stroke"  transform=" translate(-543.51, -460.76)" d="M 592.00977 480.0937 L 496.02877 480.0937 L 495.01123 450.583 C 494.92213051146507 447.99406443929854 495.9705816177239 445.49582339201237 497.8806066651636 443.74587185711914 C 499.7906317126033 441.99592032222597 502.3708689211507 441.16958261874856 504.94214 441.48437 L 560.79663 448.32373 L 560.8034700000001 448.32373 C 578.0438214464834 448.3701791926508 591.9984769309434 462.35331968027873 592.0097700000001 479.59373 Z" stroke-linecap="round" />
</g>
		<g transform="matrix(1 0 0 1 -84.24 -34.34)"  >
<path style="stroke: none; stroke-width: 1; stroke-dasharray: none; stroke-linecap: butt; stroke-dashoffset: 0; stroke-linejoin: miter; stroke-miterlimit: 4; fill: rgb(204,204,204); fill-rule: nonzero; opacity: 1;" vector-effect="non-scaling-stroke"  transform=" translate(-515.76, -415.66)" d="M 549.23082 375.4145 L 482.28871 375.4145 C 480.4906753239745 375.41401707174253 478.7661448047232 376.1280696885533 477.4947422466383 377.39947224663825 C 476.2233396885533 378.67087480472316 475.50928707174256 380.39540532397444 475.50977 382.19343999999995 L 475.50977 449.13554999999997 C 475.509287072919 450.93358559506987 476.2233393707976 452.6581171414563 477.4947416409855 453.92952128716206 C 478.7661439111735 455.2009254328678 480.49067440421965 455.91498027469834 482.28871 455.9145 L 549.23082 455.9145 C 551.028865176862 455.9149935413565 552.7534095457788 455.20094487573687 554.0248242199041 453.9295395792091 C 555.2962388940293 452.6581342826814 556.0103002794314 450.9335951804533 556.00982 449.13554999999997 L 556.00982 382.19344 C 556.010300280625 380.3953957385777 555.2962385762914 378.6708576634692 554.0248236142618 377.39945395455914 C 552.7534086522321 376.1280502456491 551.028864257101 375.4140038050613 549.23082 375.4145 Z" stroke-linecap="round" />
</g>
		<g transform="matrix(1 0 0 1 -84.24 -34.76)"  >
<path style="stroke: none; stroke-width: 1; stroke-dasharray: none; stroke-linecap: butt; stroke-dashoffset: 0; stroke-linejoin: miter; stroke-miterlimit: 4; fill: rgb(63,61,86); fill-rule: nonzero; opacity: 1;" vector-effect="non-scaling-stroke"  transform=" translate(-515.76, -415.24)" d="M 534.15445 425.47126 L 502.54816999999997 431.62618 C 498.6445695338612 432.38182920864375 494.8659536048198 429.8350115002967 494.10157999999996 425.93311 L 491.672 413.45694 C 490.9163511390504 409.5533418063601 493.46316989779297 405.77472879242913 497.36507 405.01036 L 528.97135 398.85545 C 532.874951654377 398.0997949573839 536.6535713569604 400.64661520912875 537.41794 404.54852 L 539.84751 417.02468 C 540.6031651499457 420.92827615468934 538.0563493276402 424.7068914491651 534.15445 425.47126 Z" stroke-linecap="round" />
</g>
		<g transform="matrix(1 0 0 1 -84.55 -38.58)"  >
<path style="stroke: none; stroke-width: 1; stroke-dasharray: none; stroke-linecap: butt; stroke-dashoffset: 0; stroke-linejoin: miter; stroke-miterlimit: 4; fill: rgb(255,255,255); fill-rule: nonzero; opacity: 1;" vector-effect="non-scaling-stroke"  transform=" translate(-515.45, -411.42)" d="M 527.831 410.73188 L 503.71042 415.42904999999996 C 502.7916943186565 415.6079598832839 501.9018848832839 415.0082206813435 501.722975 414.089495 C 501.54406511671607 413.1707693186564 502.14380431865646 412.2809598832839 503.06253 412.10204999999996 L 527.18312 407.40487999999993 C 528.1018456813435 407.22597287813977 528.9916528781398 407.8257143186564 529.17056 408.74443999999994 C 529.3494671218602 409.66316568134346 528.7497256813435 410.55297287813977 527.831 410.73187999999993 Z" stroke-linecap="round" />
</g>
		<g transform="matrix(1 0 0 1 -83.42 -32.76)"  >
<path style="stroke: none; stroke-width: 1; stroke-dasharray: none; stroke-linecap: butt; stroke-dashoffset: 0; stroke-linejoin: miter; stroke-miterlimit: 4; fill: rgb(255,255,255); fill-rule: nonzero; opacity: 1;" vector-effect="non-scaling-stroke"  transform=" translate(-516.58, -417.24)" d="M 523.14259 417.68789 L 510.66643000000005 420.11746 C 509.74770431865653 420.29636988328394 508.85789488328396 419.69663068134355 508.678985 418.77790500000003 C 508.5000751167161 417.85917931865646 509.0998143186565 416.96936988328395 510.01854000000003 416.79046 L 522.49471 414.36089 C 523.4134356813436 414.1819828781398 524.3032428781398 414.7817243186565 524.48215 415.70045 C 524.6610571218603 416.6191756813435 524.0613156813436 417.5089828781398 523.14259 417.68789 Z" stroke-linecap="round" />
</g>
		<g transform="matrix(1 0 0 1 -84.24 -66.75)"  >
<path style="stroke: none; stroke-width: 1; stroke-dasharray: none; stroke-linecap: butt; stroke-dashoffset: 0; stroke-linejoin: miter; stroke-miterlimit: 4; fill: rgb(179,179,179); fill-rule: nonzero; opacity: 1;" vector-effect="non-scaling-stroke"  transform=" translate(-515.76, -383.25)" d="M 556.00977 382.19344 L 556.00977 391.09081000000003 L 475.50977 391.09081000000003 L 475.50977 382.19344 C 475.50928707174256 380.3954053239745 476.2233396885533 378.6708748047232 477.4947422466383 377.3994722466383 C 478.7661448047232 376.12806968855335 480.4906753239745 375.4140170717426 482.28871 375.41450000000003 L 549.23082 375.41450000000003 C 551.0288555950699 375.414017072919 552.7533871414563 376.1280693707976 554.0247912871621 377.39947164098555 C 555.2961954328679 378.67087391117354 556.0102502746984 380.3954044042197 556.00977 382.19344 Z" stroke-linecap="round" />
</g>
		<g transform="matrix(1 0 0 1 61.34 -68.79)"  >
<path style="stroke: none; stroke-width: 1; stroke-dasharray: none; stroke-linecap: butt; stroke-dashoffset: 0; stroke-linejoin: miter; stroke-miterlimit: 4; fill: rgb(255,184,184); fill-rule: nonzero; opacity: 1;" vector-effect="non-scaling-stroke"  transform=" translate(-661.34, -381.21)" d="M 716.76052 393.87705 C 715.8197327096904 390.8401951179499 713.5821244358868 388.37602944558495 710.6497937107068 387.14761387322943 C 707.7174629855269 385.91919830087386 704.3916284616996 386.05271971478817 701.56721 387.51225 L 609.4706600000001 354.46952 L 605.4143300000001 377.47677999999996 L 697.2177300000001 402.72218 C 700.0462439353646 407.40735133159615 705.9319664034786 409.23650927608435 710.9178433914091 406.9798852156378 C 715.9037203793397 404.72326115519127 718.4137998222348 399.094136094589 716.76052 393.87705 Z" stroke-linecap="round" />
</g>
		<g transform="matrix(1 0 0 1 61.34 -68.79)"  >
<path style="stroke: none; stroke-width: 1; stroke-dasharray: none; stroke-linecap: butt; stroke-dashoffset: 0; stroke-linejoin: miter; stroke-miterlimit: 4; fill: rgb(0,0,0); fill-rule: nonzero; opacity: 0.2;" vector-effect="non-scaling-stroke"  transform=" translate(-661.34, -381.21)" d="M 716.76052 393.87705 C 715.8197327096904 390.8401951179499 713.5821244358868 388.37602944558495 710.6497937107068 387.14761387322943 C 707.7174629855269 385.91919830087386 704.3916284616996 386.05271971478817 701.56721 387.51225 L 609.4706600000001 354.46952 L 605.4143300000001 377.47677999999996 L 697.2177300000001 402.72218 C 700.0462439353646 407.40735133159615 705.9319664034786 409.23650927608435 710.9178433914091 406.9798852156378 C 715.9037203793397 404.72326115519127 718.4137998222348 399.094136094589 716.76052 393.87705 Z" stroke-linecap="round" />
</g>
		<g transform="matrix(1 0 0 1 3.37 -84.7)"  >
<path style="stroke: none; stroke-width: 1; stroke-dasharray: none; stroke-linecap: butt; stroke-dashoffset: 0; stroke-linejoin: miter; stroke-miterlimit: 4; fill: rgb(64,158,255); fill-rule: nonzero; opacity: 1;" vector-effect="non-scaling-stroke"  transform=" translate(-603.37, -365.3)" d="M 625.81732 358.66188 L 617.12058 381.38211 C 616.6198492624512 382.6901985521503 615.5745439997951 383.71555136019276 614.2570493435185 384.1909824934554 C 612.9395546872418 384.66641362671805 611.4803667473844 384.54483225778307 610.25972 383.85792000000004 L 589.12348 371.96165 C 582.2527184616516 369.2861639639435 578.8422942837169 361.5556131566694 581.4982794937871 354.6772897992029 C 584.1542647038573 347.7989664417364 591.8751101711861 344.3666269878193 598.76094 347.00309000000004 L 622.36314 352.23773000000006 C 623.7304748432016 352.5414241832686 624.8979024225881 353.42524261809876 625.561211622397 354.65887774885385 C 626.2245208222057 355.89251287960894 626.3180109058023 357.3537732202489 625.81732 358.66188000000005 Z" stroke-linecap="round" />
</g>
		<g transform="matrix(1 0 0 1 118.51 31.41)"  >
<path style="stroke: none; stroke-width: 1; stroke-dasharray: none; stroke-linecap: butt; stroke-dashoffset: 0; stroke-linejoin: miter; stroke-miterlimit: 4; fill: rgb(64,158,255); fill-rule: nonzero; opacity: 1;" vector-effect="non-scaling-stroke"  transform=" translate(-718.51, -481.41)" d="M 724.00977 414.9145 L 691.00977 429.9145 L 695.34236 446.22549999999995 C 703.7089312588822 477.7231758305464 705.929308604878 510.53770380005693 701.88212 542.8753499999999 L 701.88212 542.8753499999999 L 726.00978 547.9144999999999 L 746.00978 496.91449999999986 L 739.00978 438.91449999999986 Z" stroke-linecap="round" />
</g>
		<g transform="matrix(1 0 0 1 188.76 58.16)"  >
<path style="stroke: none; stroke-width: 1; stroke-dasharray: none; stroke-linecap: butt; stroke-dashoffset: 0; stroke-linejoin: miter; stroke-miterlimit: 4; fill: rgb(63,61,86); fill-rule: nonzero; opacity: 1;" vector-effect="non-scaling-stroke"  transform=" translate(-788.76, -508.16)" d="M 788.75977 490.4145 C 767.07764 490.4145 749.4082 506.1765 748.55077 525.9145 L 828.9687700000001 525.9145 C 828.11133 506.17646 810.44189 490.4145 788.75977 490.4145 Z" stroke-linecap="round" />
</g>
		<g transform="matrix(1 0 0 1 6.91 57.32)"  >
<path style="stroke: none; stroke-width: 1; stroke-dasharray: none; stroke-linecap: butt; stroke-dashoffset: 0; stroke-linejoin: miter; stroke-miterlimit: 4; fill: rgb(63,61,86); fill-rule: nonzero; opacity: 1;" vector-effect="non-scaling-stroke"  transform=" translate(-606.91, -507.32)" d="M 771.88135 493.81605 C 770.75293 404.71766 720.00977 412.91450000000003 720.00977 412.91450000000003 C 720.00977 412.91450000000003 720.95898 440.64783000000006 721.41504 441.51032000000004 C 753.75049 502.68989000000005 700.38477 574.41413 632.4550399999999 561.21918 Q 630.5338999999999 560.8460100000001 628.7636299999999 560.46204 C 610.8996449386037 556.732411890348 599.0084952876186 539.7633738604344 601.6003499999999 521.6992 C 608.29193 467.96358000000004 575.00973 468.91450000000003 575.00973 468.91450000000003 L 526.34326 468.91450000000003 L 501.06991 446.1686 C 499.2585229545749 444.538358425791 496.75664130364004 443.9124003461861 494.3909712604152 444.49756345609825 C 492.0253012171904 445.08272656601036 490.10373762245166 446.8028511731485 489.26123 449.08955000000003 L 486.00977 457.91455 C 486.00977 457.91455 438.00977 462.91455 442.00977 509.91455 L 456.84961 509.91455 C 456.8137788808809 511.2499627549321 456.8672849043068 512.586277026309 457.00977 513.91455 L 567.76069 513.01411 C 574.2525599999999 512.96133 579.98294 518.2217899999999 580.00969 524.7138199999999 C 580.0231078621705 527.9073663274773 578.736380774836 530.9688745135052 576.4455536213221 533.1939653290659 C 574.1547264678082 535.4190561446268 571.0570626730424 536.6161267294265 567.86526 536.5097599999999 L 550.0098 535.91455 C 544.5098 560.41455 558.0098 576.91455 572.8848 587.28955 C 586.8897963666869 596.916224136172 603.5082966255662 602.0203297618182 620.50246 601.91455 L 669.0098 601.91455 C 732.0098 601.91455 743.0098 548.91455 743.0098 548.91455 C 776.00977 534.9145 771.88135 493.81605 771.88135 493.81605 Z" stroke-linecap="round" />
</g>
		<g transform="matrix(1 0 0 1 185.76 124.66)"  >
<circle style="stroke: none; stroke-width: 1; stroke-dasharray: none; stroke-linecap: butt; stroke-dashoffset: 0; stroke-linejoin: miter; stroke-miterlimit: 4; fill: rgb(63,61,86); fill-rule: nonzero; opacity: 1;" vector-effect="non-scaling-stroke"  cx="0" cy="0" r="56.25" />
</g>
		<g transform="matrix(1 0 0 1 185.76 124.66)"  >
<circle style="stroke: none; stroke-width: 1; stroke-dasharray: none; stroke-linecap: butt; stroke-dashoffset: 0; stroke-linejoin: miter; stroke-miterlimit: 4; fill: rgb(255,255,255); fill-rule: nonzero; opacity: 1;" vector-effect="non-scaling-stroke"  cx="0" cy="0" r="13.78676" />
</g>
		<g transform="matrix(1 0 0 1 -98.24 116.16)"  >
<circle style="stroke: none; stroke-width: 1; stroke-dasharray: none; stroke-linecap: butt; stroke-dashoffset: 0; stroke-linejoin: miter; stroke-miterlimit: 4; fill: rgb(63,61,86); fill-rule: nonzero; opacity: 1;" vector-effect="non-scaling-stroke"  cx="0" cy="0" r="64.75" />
</g>
		<g transform="matrix(1 0 0 1 -98.24 116.16)"  >
<circle style="stroke: none; stroke-width: 1; stroke-dasharray: none; stroke-linecap: butt; stroke-dashoffset: 0; stroke-linejoin: miter; stroke-miterlimit: 4; fill: rgb(255,255,255); fill-rule: nonzero; opacity: 1;" vector-effect="non-scaling-stroke"  cx="0" cy="0" r="15.8701" />
</g>
		<g transform="matrix(1 0 0 1 116.02 -47.54)"  >
<path style="stroke: none; stroke-width: 1; stroke-dasharray: none; stroke-linecap: butt; stroke-dashoffset: 0; stroke-linejoin: miter; stroke-miterlimit: 4; fill: rgb(63,61,86); fill-rule: nonzero; opacity: 1;" vector-effect="non-scaling-stroke"  transform=" translate(-716.02, -402.46)" d="M 691.10352 434.34663 L 679.23 402.09711 C 677.9802687114368 398.7026535333496 678.1301926235511 394.9507674925471 679.6467890509866 391.66685240931355 C 681.1633854784221 388.3829373260801 683.9224179826209 385.83600472324844 687.31691 384.58637 L 721.35691 372.05512 C 727.3294565390976 369.8557677456616 733.9310760708985 370.1191056926896 739.7094605937853 372.7872014192356 C 745.4878451166721 375.4552971457816 749.9696496557864 380.30958961638686 752.16891 386.28216999999995 C 753.1507811584611 388.9365367669029 753.6522715404486 391.7445036560484 753.64991 394.57465 C 753.6241291126681 401.8521458251175 750.3231087367742 408.73126868407314 744.66212 413.30465000000004 C 742.6428871763087 414.9245469197749 740.3730332114609 416.2043615036108 737.9418999999999 417.09372 Z" stroke-linecap="round" />
</g>
		<g transform="matrix(1 0 0 1 137.58 -58)"  >
<path style="stroke: none; stroke-width: 1; stroke-dasharray: none; stroke-linecap: butt; stroke-dashoffset: 0; stroke-linejoin: miter; stroke-miterlimit: 4; fill: rgb(64,158,255); fill-rule: nonzero; opacity: 1;" vector-effect="non-scaling-stroke"  transform=" translate(-737.58, -392)" d="M 753.1499 394.57447 C 753.1442709837181 401.7048380882188 749.9082935547639 408.44868698945066 744.34961 412.91447 C 735.8274741410155 410.6665814502229 728.7256801623048 404.7835613856914 724.9312239029914 396.82856897668404 C 721.1367676436779 388.87357656767665 721.0338803908264 379.6521440862814 724.6499 371.61447 C 731.5969623546947 370.1037283315959 738.8545212545557 371.8184471843519 744.3908606259891 376.27859988498733 C 749.9271999974225 380.7387525856228 753.1473697433363 387.4650389857436 753.1499 394.57446999999996 Z" stroke-linecap="round" />
</g>
		<g transform="matrix(1 0 0 1 -149.49 49.41)"  >
<ellipse style="stroke: none; stroke-width: 1; stroke-dasharray: none; stroke-linecap: butt; stroke-dashoffset: 0; stroke-linejoin: miter; stroke-miterlimit: 4; fill: rgb(64,158,255); fill-rule: nonzero; opacity: 1;" vector-effect="non-scaling-stroke"  cx="0" cy="0" rx="14" ry="17" />
</g>
		<g transform="matrix(1 0 0 1 44.62 93.69)"  >
<polygon style="stroke: none; stroke-width: 1; stroke-dasharray: none; stroke-linecap: butt; stroke-dashoffset: 0; stroke-linejoin: miter; stroke-miterlimit: 4; fill: rgb(255,184,184); fill-rule: nonzero; opacity: 1;" vector-effect="non-scaling-stroke"  points="-9.05,15.9 3.21,15.9 9.05,-15.9 -9.05,-15.9 -9.05,15.9 " />
</g>
		<g transform="matrix(1 0 0 1 52.21 113.53)"  >
<path style="stroke: none; stroke-width: 1; stroke-dasharray: none; stroke-linecap: butt; stroke-dashoffset: 0; stroke-linejoin: miter; stroke-miterlimit: 4; fill: rgb(47,46,65); fill-rule: nonzero; opacity: 1;" vector-effect="non-scaling-stroke"  transform=" translate(-652.21, -563.53)" d="M 632.44363 555.58794 L 656.58743 555.58694 L 656.58843 555.58694 C 660.669169862453 555.5868259536763 664.5828096325534 557.2078259292389 667.4683519047737 560.0933213170795 C 670.3538941769939 562.9788167049202 671.9749577417983 566.8924301362326 671.97491 570.97317 L 671.97491 571.47317 L 632.44439 571.4746299999999 Z" stroke-linecap="round" />
</g>
		<g transform="matrix(1 0 0 1 23.52 38.65)"  >
<path style="stroke: none; stroke-width: 1; stroke-dasharray: none; stroke-linecap: butt; stroke-dashoffset: 0; stroke-linejoin: miter; stroke-miterlimit: 4; fill: rgb(47,46,65); fill-rule: nonzero; opacity: 1;" vector-effect="non-scaling-stroke"  transform=" translate(-623.52, -488.65)" d="M 649.80136 546.54 Q 649.58713 546.54 649.3711800000001 546.51949 L 632.4046300000001 545.28414 C 631.0139875898136 545.1551124163182 629.7620793938053 544.3876996948213 629.0161088647739 543.2069954980909 C 628.2701383357426 542.0262913013606 628.1146718278891 540.5661452191879 628.5953100000002 539.25484 L 651.3018500000002 488.24019999999996 C 651.6298143825167 487.3207363732713 651.5586519218123 486.30605590104443 651.1055600000002 485.44136999999995 C 650.6534886075566 484.56603911096806 649.8488461790166 483.92566356195266 648.8943800000002 483.68159999999995 C 638.2171300000002 480.89059999999995 610.8223800000002 473.45894999999996 587.1080000000002 464.76359999999994 C 576.9480900000002 461.03801999999996 570.5491600000001 455.6542299999999 568.0892000000001 448.7616499999999 C 564.8460400000001 439.67473999999993 569.6438900000002 431.3876499999999 569.8497000000001 431.0399699999999 L 570.0105900000001 430.7675099999999 L 592.3252900000001 432.7958299999999 L 616.5164500000001 434.8534499999999 L 669.52988 463.2811799999999 C 678.7416254824474 468.2627687367503 682.5801214984779 479.485918920069 678.34848 489.0653599999999 L 653.90756 543.873 C 653.1852053753055 545.494542825818 651.5765211111351 546.539392305274 649.80136 546.54 Z" stroke-linecap="round" />
</g>
		<g transform="matrix(1 0 0 1 -3.79 -142.69)"  >
<circle style="stroke: none; stroke-width: 1; stroke-dasharray: none; stroke-linecap: butt; stroke-dashoffset: 0; stroke-linejoin: miter; stroke-miterlimit: 4; fill: rgb(255,184,184); fill-rule: nonzero; opacity: 1;" vector-effect="non-scaling-stroke"  cx="0" cy="0" r="24.56103" />
</g>
		<g transform="matrix(1 0 0 1 37.62 96.69)"  >
<polygon style="stroke: none; stroke-width: 1; stroke-dasharray: none; stroke-linecap: butt; stroke-dashoffset: 0; stroke-linejoin: miter; stroke-miterlimit: 4; fill: rgb(255,184,184); fill-rule: nonzero; opacity: 1;" vector-effect="non-scaling-stroke"  points="-9.05,15.9 3.21,15.9 9.05,-15.9 -9.05,-15.9 -9.05,15.9 " />
</g>
		<g transform="matrix(1 0 0 1 45.21 116.53)"  >
<path style="stroke: none; stroke-width: 1; stroke-dasharray: none; stroke-linecap: butt; stroke-dashoffset: 0; stroke-linejoin: miter; stroke-miterlimit: 4; fill: rgb(47,46,65); fill-rule: nonzero; opacity: 1;" vector-effect="non-scaling-stroke"  transform=" translate(-645.21, -566.53)" d="M 625.44363 558.58794 L 649.58743 558.58694 L 649.58843 558.58694 C 653.669169862453 558.5868259536763 657.5828096325534 560.2078259292389 660.4683519047737 563.0933213170795 C 663.3538941769939 565.9788167049202 664.9749577417983 569.8924301362326 664.97491 573.97317 L 664.97491 574.47317 L 625.44439 574.4746299999999 Z" stroke-linecap="round" />
</g>
		<g transform="matrix(1 0 0 1 16.52 41.65)"  >
<path style="stroke: none; stroke-width: 1; stroke-dasharray: none; stroke-linecap: butt; stroke-dashoffset: 0; stroke-linejoin: miter; stroke-miterlimit: 4; fill: rgb(47,46,65); fill-rule: nonzero; opacity: 1;" vector-effect="non-scaling-stroke"  transform=" translate(-616.52, -491.65)" d="M 642.80136 549.54 Q 642.58713 549.54 642.3711800000001 549.51949 L 625.4046300000001 548.28414 C 624.0139875898136 548.1551124163182 622.7620793938053 547.3876996948213 622.0161088647739 546.2069954980909 C 621.2701383357426 545.0262913013606 621.1146718278891 543.5661452191879 621.5953100000002 542.25484 L 644.3018500000002 491.24019999999996 C 644.6298143825167 490.3207363732713 644.5586519218123 489.30605590104443 644.1055600000002 488.44136999999995 C 643.6534886075566 487.56603911096806 642.8488461790166 486.92566356195266 641.8943800000002 486.68159999999995 C 631.2171300000002 483.89059999999995 603.8223800000002 476.45894999999996 580.1080000000002 467.76359999999994 C 569.9480900000002 464.03801999999996 563.5491600000001 458.6542299999999 561.0892000000001 451.7616499999999 C 557.8460400000001 442.67473999999993 562.6438900000002 434.3876499999999 562.8497000000001 434.0399699999999 L 563.0105900000001 433.7675099999999 L 585.3252900000001 435.7958299999999 L 609.5164500000001 437.8534499999999 L 662.52988 466.2811799999999 C 671.7416254824474 471.2627687367503 675.5801214984779 482.485918920069 671.34848 492.0653599999999 L 646.90756 546.873 C 646.1852053753055 548.494542825818 644.5765211111351 549.539392305274 642.80136 549.54 Z" stroke-linecap="round" />
</g>
		<g transform="matrix(1 0 0 1 -8.72 -55.15)"  >
<path style="stroke: none; stroke-width: 1; stroke-dasharray: none; stroke-linecap: butt; stroke-dashoffset: 0; stroke-linejoin: miter; stroke-miterlimit: 4; fill: rgb(64,158,255); fill-rule: nonzero; opacity: 1;" vector-effect="non-scaling-stroke"  transform=" translate(-591.28, -394.85)" d="M 603.78012 345.79386 L 577.78012 336.79386 C 577.78012 336.79386 561.45812 349.33386 569.29912 380.44241999999997 C 573.3925982217156 396.4956141845229 572.2002303436383 413.4409050329018 565.89903 428.7626699999999 C 565.1403354060177 430.6583674044094 564.265719642477 432.5055873965198 563.2801400000001 434.29385999999994 C 563.2801400000001 434.29385999999994 592.2801400000001 469.29385999999994 619.2801400000001 443.29385999999994 L 608.7801400000001 392.79385999999994 C 608.7801400000001 392.79385999999994 625.28012 359.29386 603.78012 345.79386 Z" stroke-linecap="round" />
</g>
		<g transform="matrix(1 0 0 1 -7.23 -149.73)"  >
<path style="stroke: none; stroke-width: 1; stroke-dasharray: none; stroke-linecap: butt; stroke-dashoffset: 0; stroke-linejoin: miter; stroke-miterlimit: 4; fill: rgb(47,46,65); fill-rule: nonzero; opacity: 1;" vector-effect="non-scaling-stroke"  transform=" translate(-592.77, -300.27)" d="M 599.25474 332.702 C 595.7591199999999 327.46969 593.0003899999999 320.21444 596.8490899999999 315.23609 C 600.64816 310.32193 608.1412399999999 311.04591 613.95963 308.87143 C 622.06363 305.84276 626.7637199999999 296.32212999999996 625.29787 287.79578999999995 C 623.83202 279.26944999999995 616.98756 272.20136999999994 608.83382 269.30933999999996 C 600.6800799999999 266.41731 591.48543 267.35785999999996 583.5006999999999 270.68820999999997 C 573.67139 274.78790999999995 565.2395499999999 282.71849 561.7038399999999 292.76446 C 558.1681299999999 302.81043 560.05824 314.87253999999996 567.3931299999999 322.59409 C 575.2569399999999 330.87243 587.5986899999999 333.07863 599.0158899999999 332.94476" stroke-linecap="round" />
</g>
		<g transform="matrix(1 0 0 1 -78.75 -149.46)"  >
<path style="stroke: none; stroke-width: 1; stroke-dasharray: none; stroke-linecap: butt; stroke-dashoffset: 0; stroke-linejoin: miter; stroke-miterlimit: 4; fill: rgb(47,46,65); fill-rule: nonzero; opacity: 1;" vector-effect="non-scaling-stroke"  transform=" translate(-521.25, -300.54)" d="M 576.40785 288.06942 C 572.00301 291.65529 565.28258 290.0626 560.55425 286.91555 C 555.82592 283.7685 551.98918 279.2873 546.87325 276.81989 C 537.85403 272.46994 526.9494599999999 275.36163999999997 518.1715399999999 280.17998 C 509.39361999999994 284.99832000000004 501.6123799999999 291.65498 492.34029999999996 295.43615 C 483.06822 299.21732 471.23636999999997 299.40423 464.21545999999995 292.26454 C 460.67559430271643 302.52053219472674 463.94898600243624 313.894944016374 472.39890460878246 320.7004491849287 C 480.8488232151287 327.50595435348333 492.65953536614273 328.2801739567692 501.92555999999996 322.63599 C 512.0849599999999 316.44759999999997 517.69661 303.47229 529.0914799999999 300.05665999999997 C 535.39698 298.16657999999995 542.1677999999999 299.68888999999996 548.5406499999999 301.33772 C 554.9134999999999 302.98655 561.5584799999999 304.76813 567.9897699999999 303.36446 C 574.4210599999999 301.96079000000003 580.4367699999999 296.18134000000003 579.6185699999999 289.64971 Z" stroke-linecap="round" />
</g>
		<g transform="matrix(1 0 0 1 59.77 -62.4)"  >
<path style="stroke: none; stroke-width: 1; stroke-dasharray: none; stroke-linecap: butt; stroke-dashoffset: 0; stroke-linejoin: miter; stroke-miterlimit: 4; fill: rgb(255,184,184); fill-rule: nonzero; opacity: 1;" vector-effect="non-scaling-stroke"  transform=" translate(-659.77, -387.6)" d="M 715.53838 392.87666 C 714.2300916712155 389.97908234371357 711.7055466618528 387.8098228397128 708.6440555019224 386.952590955616 C 705.582564341992 386.09535907151917 702.2986148841908 386.63821288112416 699.67586 388.43508 L 604.2061 367.00792 L 603.01946 390.33986 L 697.23624 404.06543999999997 C 700.6212058931569 408.3658346064035 706.6876496088404 409.4548291327556 711.3570086836785 406.60027598053586 C 716.0263677585166 403.7457228283161 717.8227326953743 397.8499004558554 715.53838 392.87665999999996 Z" stroke-linecap="round" />
</g>
		<g transform="matrix(1 0 0 1 -1.43 -71.52)"  >
<path style="stroke: none; stroke-width: 1; stroke-dasharray: none; stroke-linecap: butt; stroke-dashoffset: 0; stroke-linejoin: miter; stroke-miterlimit: 4; fill: rgb(64,158,255); fill-rule: nonzero; opacity: 1;" vector-effect="non-scaling-stroke"  transform=" translate(-598.57, -378.48)" d="M 620.94513 369.15135 L 615.11813 392.77101 C 614.7826215618595 394.13089339771005 613.8718082070083 395.2773908237017 612.6230316439035 395.9117455059346 C 611.3742550807985 396.5461001881675 609.9112064064735 396.60547940790565 608.6151299999999 396.07441 L 586.17261 386.87688 C 579.0192974298567 385.0737967671013 574.6758131674725 377.82016695577266 576.4637461868142 370.66305263579164 C 578.251679206156 363.5059383158106 585.496096017231 359.1471052099451 592.65698 360.91988000000003 L 616.7247 363.20243000000005 C 618.1190575461947 363.33510035415026 619.3866121127775 364.06812590488113 620.1970625550516 365.21049382727654 C 621.0075129973259 366.352861749672 621.2805846064615 367.7914210753771 620.94512 369.15131 Z" stroke-linecap="round" />
</g>
		<g transform="matrix(1 0 0 1 104.51 -45.59)"  >
<circle style="stroke: none; stroke-width: 1; stroke-dasharray: none; stroke-linecap: butt; stroke-dashoffset: 0; stroke-linejoin: miter; stroke-miterlimit: 4; fill: rgb(64,158,255); fill-rule: nonzero; opacity: 1;" vector-effect="non-scaling-stroke"  cx="0" cy="0" r="7" />
</g>
</g>
</g>
</svg>