<svg width="800" height="600" viewBox="0 0 800 600" xmlns="http://www.w3.org/2000/svg">
  <!-- Food Plate -->
  <circle cx="400" cy="300" r="180" fill="#f8f9fa" stroke="#e9ecef" stroke-width="8"/>
  <circle cx="400" cy="300" r="160" fill="#dee2e6"/>
  
  <!-- Food Items -->
  <!-- Burger -->
  <g transform="translate(320,250)">
    <path d="M160,40 A80,20 0 0,1 0,40 A80,20 0 0,1 160,40" fill="#ffd43b"/> <!-- Top Bun -->
    <rect x="0" y="40" width="160" height="20" fill="#74c0fc"/> <!-- Lettuce -->
    <rect x="0" y="60" width="160" height="30" fill="#ff6b6b"/> <!-- Meat -->
    <path d="M160,110 A80,20 0 0,1 0,110 A80,20 0 0,1 160,110" fill="#ffd43b"/> <!-- Bottom Bun -->
  </g>
  
  <!-- French Fries -->
  <g transform="translate(500,280)">
    <rect x="0" y="0" width="10" height="60" rx="2" fill="#ffd43b"/>
    <rect x="20" y="-10" width="10" height="70" rx="2" fill="#ffd43b"/>
    <rect x="40" y="-5" width="10" height="65" rx="2" fill="#ffd43b"/>
    <rect x="60" y="5" width="10" height="55" rx="2" fill="#ffd43b"/>
  </g>
  
  <!-- Drink -->
  <g transform="translate(250,280)">
    <path d="M0,0 L40,0 L35,80 L5,80 Z" fill="#74c0fc"/>
    <rect x="15" y="-10" width="10" height="20" fill="#adb5bd"/> <!-- Straw -->
  </g>
  
  <!-- Decorative Elements -->
  <circle cx="400" cy="300" r="180" fill="none" stroke="#e9ecef" stroke-width="2" stroke-dasharray="10 5"/>
  
  <!-- Small Decorative Circles -->
  <circle cx="250" cy="200" r="10" fill="#ff6b6b" opacity="0.5"/>
  <circle cx="550" cy="400" r="15" fill="#74c0fc" opacity="0.5"/>
  <circle cx="500" cy="180" r="12" fill="#ffd43b" opacity="0.5"/>
</svg>